<svg width="138" height="64" viewBox="0 0 138 64" fill="none" xmlns="http://www.w3.org/2000/svg">
<path d="M75.9401 18.3746C76.5676 17.6054 77.3032 16.9327 78.1262 16.3778C80.5053 14.7588 83.4339 14.1597 86.2579 14.7138C88.175 15.0987 89.9324 16.166 91.0047 17.8207C92.977 20.8642 92.1104 24.6738 91.5369 28.003C91.2495 29.6728 90.999 31.3624 90.6323 33.0175C90.4151 34.6381 90.0508 36.2415 89.8485 37.8609L82.6926 37.8839C82.7523 37.5425 82.7949 37.1828 82.8753 36.8472C83.2879 34.1611 83.8155 31.4854 84.2879 28.8088C84.5695 27.2141 84.9717 25.5299 84.9499 23.9078C84.9396 23.2306 84.8292 22.6212 84.4764 22.0352C84.0603 21.3464 83.3558 20.929 82.5788 20.769C81.3168 20.5092 79.8789 20.7885 78.8284 21.5388C77.9009 22.2008 77.2642 23.1928 76.8492 24.2398C76.1481 26.0118 75.9872 28.0041 75.6746 29.8733L74.3207 37.8977C71.9426 37.8781 69.5658 37.8735 67.1877 37.8827C67.7164 35.4128 68.0819 32.8968 68.5221 30.4103C68.8807 28.391 69.4324 26.2246 69.4738 24.1792C69.4888 23.4122 69.4336 22.6158 69.0129 21.9506C68.5658 21.2414 67.8452 20.874 67.036 20.7304C65.7476 20.502 64.3787 20.7577 63.3202 21.5439C62.4053 22.2233 61.7777 23.2191 61.3674 24.268C60.6019 26.2195 60.4502 28.4767 60.1031 30.5392C59.6882 32.9968 59.2032 35.4415 58.8015 37.9011C56.4185 37.8758 54.0352 37.8816 51.6523 37.9184L55.6897 14.9162L62.2467 14.9204C62.1225 15.9248 61.9651 16.9249 61.7743 17.9188C62.4765 17.1206 63.1868 16.4483 64.0994 15.8924C66.1889 14.6209 68.9555 14.1944 71.3323 14.7778C73.415 15.2887 74.8563 16.5626 75.9401 18.3746Z" fill="url(#paint0_linear_8_3046)"/>
<path d="M82.8761 36.8471C82.9152 36.7977 82.9623 36.7552 82.9922 36.7C83.0543 36.5805 83.0887 36.4471 83.1543 36.3299L83.5404 36.6517C84.0714 36.5816 84.6254 35.9655 85.1185 35.7242C85.5012 35.538 85.9851 35.4978 86.4 35.4231C86.5943 35.3874 87.1977 35.2725 87.3264 35.1081C87.6413 34.707 87.6666 34.0048 88.1505 33.691C88.5126 33.4565 89.0631 33.4289 89.4665 33.2439C89.6516 33.1577 90.0171 32.9002 90.2033 32.9014C90.3527 32.9014 90.4906 32.9784 90.6331 33.0175C90.4159 34.6381 90.0515 36.2414 89.8493 37.8609L82.6934 37.8838C82.7531 37.5425 82.7956 37.1827 82.8761 36.8471Z" fill="#088347"/>
<path d="M27.9122 14.8804C30.3057 14.9118 32.6995 14.9078 35.0928 14.8687C34.6685 17.3865 34.227 19.9016 33.7679 22.4134C33.3724 24.5319 32.67 26.9461 32.7304 29.0947C32.7497 29.7844 32.9392 30.4796 33.3297 31.0544C33.7916 31.7336 34.4998 32.1405 35.2998 32.2865C36.6754 32.537 38.2418 32.1681 39.3719 31.352C40.2836 30.6946 40.9577 29.7709 41.3963 28.7435C42.0989 27.0971 42.2884 25.1778 42.6284 23.4306C43.1985 20.59 43.7362 17.7431 44.2414 14.8904L51.4155 14.8715L47.6713 35.9334L47.3133 37.8586C46.4388 37.8609 45.555 37.8919 44.6815 37.8586C43.3909 37.931 42.058 37.8643 40.763 37.8609C40.88 36.8862 41.0409 35.9127 41.1804 34.9403C40.627 35.5277 40.0637 36.0897 39.4076 36.5621C37.167 38.1746 34.2767 38.67 31.5803 38.2149C29.6765 37.893 27.9137 36.9713 26.7881 35.3725C25.9401 34.1668 25.5079 32.7393 25.4046 31.2773C25.1985 28.3653 26.0487 25.3039 26.5836 22.4527C27.0459 19.932 27.4887 17.4078 27.9122 14.8804Z" fill="url(#paint1_linear_8_3046)"/>
<path d="M44.6819 37.8586L44.6318 37.7126C44.7425 37.4138 44.9245 37.2414 45.1653 37.0426C45.7395 36.5667 46.907 35.8737 47.6718 35.9334L47.3137 37.8586C46.4392 37.8609 45.5555 37.8919 44.6819 37.8586Z" fill="#088347"/>
<path d="M5.12475 9.12827L12.4888 9.11792C12.1709 12.0198 11.515 14.9507 10.9931 17.8255L8.44226 31.983L21.816 32.0048C22.199 31.9934 22.5944 31.9336 22.9508 32.0842C22.7953 34.0151 22.3097 35.9989 21.9666 37.9091C18.3419 37.8918 14.7119 37.9757 11.0887 37.9091L0 37.9217L5.12475 9.12827Z" fill="url(#paint2_linear_8_3046)"/>
<path d="M21.816 32.0049C22.199 31.9934 22.5944 31.9336 22.9508 32.0842C22.7953 34.0151 22.3097 35.9989 21.9666 37.9091C18.3419 37.8919 14.7119 37.9758 11.0887 37.9091C9.11533 37.2482 5.1897 38.3011 3.12695 37.6034L3.15983 37.5034C4.58445 37.2632 7.21682 36.746 8.40733 35.9816C9.07683 35.5518 9.74736 34.8127 10.4887 34.5357C10.9401 34.3668 11.5021 34.4093 11.978 34.3243C12.7066 34.1932 13.4915 33.945 14.1739 33.6542C15.0953 33.2611 16.339 32.3209 17.3015 32.2129C18.4279 32.0853 20.9706 32.5497 21.816 32.0049Z" fill="#6CBA39"/>
<path d="M96.5198 20.5133C98.5369 21.6114 100.664 22.4955 102.865 23.151C101.97 24.7035 101.486 26.5623 101.705 28.3566C101.868 29.7006 102.467 30.9314 103.568 31.7498C104.689 32.5831 106.115 32.806 107.475 32.5899C109.075 32.3359 110.463 31.4751 111.381 30.1383C112.672 28.258 112.895 25.8434 112.488 23.6505C117.397 23.221 122.331 22.9719 127.247 22.6202C130.137 22.4135 133.107 21.9857 136 22.0168C133.931 22.5684 131.769 22.8589 129.66 23.2239C126.408 23.8041 123.147 24.3435 119.881 24.842C119.782 27.2685 119.42 29.4435 118.235 31.5969C116.531 34.691 113.702 36.861 110.321 37.8402C106.915 38.8275 102.839 38.6264 99.7093 36.8667C97.3543 35.5518 95.6268 33.3439 94.9188 30.7406C93.9671 27.2364 94.7693 23.6167 96.5198 20.5133Z" fill="#088347"/>
<path d="M96.5195 20.5133C97.7356 18.8001 99.1033 17.4009 100.932 16.342C103.923 14.6114 108.054 13.9061 111.42 14.7915C112.953 15.0445 114.677 15.7429 115.867 16.759C117.423 17.8597 118.48 19.5888 119.095 21.3673C116.654 21.5174 114.095 21.6164 111.68 21.9861C110.562 20.9164 109.403 20.2937 107.811 20.3133C106.255 20.3431 104.774 20.9909 103.696 22.1139C103.387 22.4361 103.117 22.7829 102.865 23.151C100.664 22.4955 98.5367 21.6114 96.5195 20.5133Z" fill="url(#paint3_linear_8_3046)"/>
<path d="M111.42 14.7914C112.953 15.0444 114.677 15.7428 115.867 16.7589C115.564 16.76 115.41 16.6923 115.162 16.5177C113.985 15.6904 112.676 16.2436 111.42 14.7914Z" fill="#6CBA39"/>
<path d="M83.5566 9.08815C84.9359 9.04459 95.0146 14.5264 96.7271 15.7806C97.0443 16.0127 97.1007 16.0801 97.165 16.47C97.111 16.4899 97.0581 16.5158 97.003 16.5295C96.6697 16.6107 96.4789 16.4939 96.1869 16.3467C94.2641 15.377 92.4331 14.1211 90.5689 13.0352C88.2506 11.6849 85.868 10.4485 83.5566 9.08815Z" fill="#6CBA39"/>
<path d="M134.778 14.9742C134.988 14.956 135.13 14.9658 135.335 14.9944C134.603 15.5314 122.773 18.7006 120.859 19.3262C120.739 19.3402 120.631 19.3017 120.512 19.2751C120.335 19.0338 120.258 19.0123 120.256 18.7028C120.781 18.2382 133.074 15.383 134.778 14.9742Z" fill="#6CBA39"/>
<path d="M118.834 0L118.935 0.137581C118.897 0.273549 118.86 0.403427 118.802 0.53296C118.204 1.87817 113.121 12.3258 112.644 12.7013C112.545 12.7797 112.406 12.7889 112.288 12.8328C112.137 12.6952 112.078 12.6107 112.01 12.4187C113.919 8.16871 116.47 4.02011 118.834 0Z" fill="#6CBA39"/>
<path d="M92.0391 3.89539C92.1655 3.95297 92.2609 3.99687 92.3689 4.0856C93.3436 4.88383 100.257 12.8429 100.57 13.6981C100.608 13.8039 100.58 13.9231 100.586 14.0355C100.411 14.072 100.244 14.088 100.066 14.1042C98.4226 12.4215 97.033 10.4455 95.5906 8.59039C94.3987 7.05658 93.0804 5.53483 92.0391 3.89539Z" fill="#6CBA39"/>
<path d="M124.827 6.67908C124.819 6.8632 124.754 6.97216 124.625 7.10365C123.668 8.07451 117.257 14.239 116.493 14.4729C116.361 14.5131 116.219 14.4797 116.081 14.483C115.97 14.287 115.953 14.2413 115.934 14.0043C117.56 12.5665 119.286 11.2419 120.956 9.8559C122.227 8.80033 123.471 7.61937 124.827 6.67908Z" fill="#6CBA39"/>
<path d="M109.109 2.03955C109.127 2.09116 109.154 2.14047 109.165 2.19426C109.3 2.84261 108.798 11.5147 108.518 12.044L107.909 12.2124C107.721 11.5463 108.772 2.98076 109.109 2.03955Z" fill="#6CBA39"/>
<path d="M101.322 3.39966C101.352 3.41839 101.385 3.43299 101.412 3.45574C101.668 3.67182 104.286 11.6972 104.442 12.6206C104.244 12.6392 104.06 12.6292 103.862 12.6145C103.277 11.9711 101.437 4.48201 101.322 3.39966Z" fill="#6CBA39"/>
<path d="M91.2695 8.83862C91.4419 8.89644 91.6051 8.95816 91.7592 9.05724C92.8005 9.72938 98.6289 14.1807 98.8449 15.0553C98.6932 15.1104 98.607 15.1346 98.4415 15.1237C97.8599 15.0849 92.0476 9.69133 91.2695 8.83862Z" fill="#6CBA39"/>
<path d="M119.871 6.08691C119.86 6.28299 119.818 6.38218 119.719 6.55804C119.265 7.35741 115.044 13.2067 114.594 13.4173C114.482 13.47 114.351 13.4713 114.23 13.4983C114.139 13.3672 114.11 13.2759 114.064 13.1259C115.09 11.2781 118.376 7.72877 119.871 6.08691Z" fill="#6CBA39"/>
<path d="M124.577 11.4946C124.642 11.4995 124.7 11.542 124.758 11.5712C124.299 12.0314 123.648 12.2992 123.108 12.6594C121.41 13.7904 119.737 14.9632 117.985 16.0108L117.661 15.5358C117.901 14.9443 123.624 12.0134 124.577 11.4946Z" fill="#6CBA39"/>
<path d="M128.561 19.9494C128.759 19.9235 128.837 19.9369 129.015 20.0281C128.229 20.4795 122.836 20.9459 121.59 21.1004C121.303 21.082 121.285 21.0942 121.073 20.903L121.081 20.6499C121.572 20.213 127.504 20.0169 128.561 19.9494Z" fill="#088347"/>
<path d="M98.7402 6.78357C99.5655 7.49812 102.007 11.9529 102.545 13.1262C102.324 13.1941 102.183 13.2153 101.953 13.1934C101.099 12.1847 99.1195 8.10855 98.7402 6.78357Z" fill="#6CBA39"/>
<path d="M105.446 5.72034C105.465 5.73493 105.485 5.74758 105.501 5.76424C105.968 6.23629 106.389 11.3159 106.48 12.2718C106.262 12.2582 106.081 12.2159 105.872 12.1551C105.428 11.2881 105.452 6.909 105.446 5.72034Z" fill="#6CBA39"/>
<path d="M112.107 5.71948C112.338 6.33243 110.998 11.2377 110.671 11.9834C110.528 12.309 110.455 12.2844 110.132 12.3991C109.86 11.6134 111.662 6.68356 112.107 5.71948Z" fill="#6CBA39"/>
<path d="M124.73 14.855L124.819 14.945C124.511 15.478 120.182 17.1983 119.351 17.5553C119.246 17.3999 119.177 17.2515 119.105 17.0782C119.601 16.4371 123.791 15.1886 124.73 14.855Z" fill="#6CBA39"/>
<path d="M91.2842 15.8784C92.5197 16.1244 94.9196 16.8984 95.9276 17.6084L95.9805 17.9666C95.931 17.9778 95.8828 17.9914 95.8333 18.0005C95.0656 18.1418 91.9531 16.3775 91.2842 15.8784Z" fill="#6CBA39"/>
<path d="M3.248 54.5791H7.966V56.3431H3.248V54.5791ZM3.416 58.6111H8.75V60.4311H1.162V50.6311H8.568V52.4511H3.416V58.6111ZM15.7346 60.4311V50.6311H18.0026V58.5831H22.9166V60.4311H15.7346ZM31.4498 54.5791H36.1678V56.3431H31.4498V54.5791ZM31.6178 58.6111H36.9518V60.4311H29.3638V50.6311H36.7698V52.4511H31.6178V58.6111ZM48.6264 60.5991C47.8704 60.5991 47.1657 60.4778 46.5124 60.2351C45.8684 59.9831 45.3084 59.6285 44.8324 59.1711C44.3564 58.7138 43.983 58.1771 43.7124 57.5611C43.451 56.9451 43.3204 56.2685 43.3204 55.5311C43.3204 54.7938 43.451 54.1171 43.7124 53.5011C43.983 52.8851 44.3564 52.3485 44.8324 51.8911C45.3177 51.4338 45.8824 51.0838 46.5264 50.8411C47.1704 50.5891 47.875 50.4631 48.6404 50.4631C49.4897 50.4631 50.255 50.6125 50.9364 50.9111C51.627 51.2005 52.2057 51.6298 52.6724 52.1991L51.2164 53.5431C50.8804 53.1605 50.507 52.8758 50.0964 52.6891C49.6857 52.4931 49.2377 52.3951 48.7524 52.3951C48.295 52.3951 47.875 52.4698 47.4924 52.6191C47.1097 52.7685 46.7784 52.9831 46.4984 53.2631C46.2184 53.5431 45.999 53.8745 45.8404 54.2571C45.691 54.6398 45.6164 55.0645 45.6164 55.5311C45.6164 55.9978 45.691 56.4225 45.8404 56.8051C45.999 57.1878 46.2184 57.5191 46.4984 57.7991C46.7784 58.0791 47.1097 58.2938 47.4924 58.4431C47.875 58.5925 48.295 58.6671 48.7524 58.6671C49.2377 58.6671 49.6857 58.5738 50.0964 58.3871C50.507 58.1911 50.8804 57.8971 51.2164 57.5051L52.6724 58.8491C52.2057 59.4185 51.627 59.8525 50.9364 60.1511C50.255 60.4498 49.485 60.5991 48.6264 60.5991ZM61.3183 60.4311V52.4791H58.1823V50.6311H66.7223V52.4791H63.5863V60.4311H61.3183ZM73.1225 60.4311V50.6311H77.3645C78.2419 50.6311 78.9979 50.7758 79.6325 51.0651C80.2672 51.3451 80.7572 51.7511 81.1025 52.2831C81.4479 52.8151 81.6205 53.4498 81.6205 54.1871C81.6205 54.9151 81.4479 55.5451 81.1025 56.0771C80.7572 56.5998 80.2672 57.0011 79.6325 57.2811C78.9979 57.5611 78.2419 57.7011 77.3645 57.7011H74.3825L75.3905 56.7071V60.4311H73.1225ZM79.3525 60.4311L76.9025 56.8751H79.3245L81.8025 60.4311H79.3525ZM75.3905 56.9591L74.3825 55.8951H77.2385C77.9385 55.8951 78.4612 55.7458 78.8065 55.4471C79.1519 55.1391 79.3245 54.7191 79.3245 54.1871C79.3245 53.6458 79.1519 53.2258 78.8065 52.9271C78.4612 52.6285 77.9385 52.4791 77.2385 52.4791H74.3825L75.3905 51.4011V56.9591ZM88.5975 60.4311V50.6311H90.8655V60.4311H88.5975ZM103.061 60.5991C102.305 60.5991 101.601 60.4778 100.947 60.2351C100.303 59.9831 99.7432 59.6285 99.2672 59.1711C98.7912 58.7138 98.4179 58.1771 98.1472 57.5611C97.8859 56.9451 97.7552 56.2685 97.7552 55.5311C97.7552 54.7938 97.8859 54.1171 98.1472 53.5011C98.4179 52.8851 98.7912 52.3485 99.2672 51.8911C99.7526 51.4338 100.317 51.0838 100.961 50.8411C101.605 50.5891 102.31 50.4631 103.075 50.4631C103.925 50.4631 104.69 50.6125 105.371 50.9111C106.062 51.2005 106.641 51.6298 107.107 52.1991L105.651 53.5431C105.315 53.1605 104.942 52.8758 104.531 52.6891C104.121 52.4931 103.673 52.3951 103.187 52.3951C102.73 52.3951 102.31 52.4698 101.927 52.6191C101.545 52.7685 101.213 52.9831 100.933 53.2631C100.653 53.5431 100.434 53.8745 100.275 54.2571C100.126 54.6398 100.051 55.0645 100.051 55.5311C100.051 55.9978 100.126 56.4225 100.275 56.8051C100.434 57.1878 100.653 57.5191 100.933 57.7991C101.213 58.0791 101.545 58.2938 101.927 58.4431C102.31 58.5925 102.73 58.6671 103.187 58.6671C103.673 58.6671 104.121 58.5738 104.531 58.3871C104.942 58.1911 105.315 57.8971 105.651 57.5051L107.107 58.8491C106.641 59.4185 106.062 59.8525 105.371 60.1511C104.69 60.4498 103.92 60.5991 103.061 60.5991ZM112.353 60.4311L116.721 50.6311H118.961L123.343 60.4311H120.963L117.379 51.7791H118.275L114.677 60.4311H112.353ZM114.537 58.3311L115.139 56.6091H120.179L120.795 58.3311H114.537ZM129.54 60.4311V50.6311H131.808V58.5831H136.722V60.4311H129.54Z" fill="#4E4D4D"/>
<defs>
<linearGradient id="paint0_linear_8_3046" x1="63.0719" y1="11.4586" x2="77.632" y2="40.0286" gradientUnits="userSpaceOnUse">
<stop stop-color="#61B340"/>
<stop offset="1" stop-color="#02834C"/>
</linearGradient>
<linearGradient id="paint1_linear_8_3046" x1="32.8502" y1="12.7652" x2="44.9668" y2="37.3632" gradientUnits="userSpaceOnUse">
<stop stop-color="#84C336"/>
<stop offset="1" stop-color="#399D46"/>
</linearGradient>
<linearGradient id="paint2_linear_8_3046" x1="0.785586" y1="11.3473" x2="11.3239" y2="34.8461" gradientUnits="userSpaceOnUse">
<stop stop-color="#C6E824"/>
<stop offset="1" stop-color="#6BB63C"/>
</linearGradient>
<linearGradient id="paint3_linear_8_3046" x1="110.036" y1="14.396" x2="106.544" y2="24.2474" gradientUnits="userSpaceOnUse">
<stop stop-color="#9BD337"/>
<stop offset="1" stop-color="#399C4B"/>
</linearGradient>
</defs>
</svg>
