<svg width="162" height="121" viewBox="0 0 162 121" fill="none" xmlns="http://www.w3.org/2000/svg">
<path d="M92.8514 121.005L159.116 121.005C160.701 121.005 161.997 119.709 161.997 118.124L161.997 51.8594C161.997 50.2748 160.701 48.9783 159.116 48.9783L121.662 48.9783L121.662 46.0973C121.662 31.8071 133.302 20.1675 147.592 20.1675L159.116 20.1675C160.701 20.1675 161.997 18.871 161.997 17.2865L161.997 2.88104C161.997 1.29645 160.701 -3.80336e-05 159.116 -3.78951e-05L141.83 -3.63839e-05C113.221 -3.38828e-05 89.9703 23.2791 89.9703 51.8594L89.9703 118.124C89.9703 119.709 91.2668 121.005 92.8514 121.005Z" fill="url(#paint0_linear_399_669)"/>
<path d="M3.5379 121.005L69.8028 121.005C71.3874 121.005 72.6838 119.709 72.6838 118.124L72.6838 51.8594C72.6838 50.2748 71.3873 48.9783 69.8028 48.9783L32.3487 48.9783L32.3487 46.0973C32.3487 31.8071 43.9883 20.1675 58.2784 20.1675L69.8027 20.1675C71.3873 20.1675 72.6838 18.871 72.6838 17.2865L72.6838 2.88104C72.6838 1.29645 71.3873 -3.80336e-05 69.8027 -3.78951e-05L52.5163 -3.63839e-05C23.9071 -3.38828e-05 0.656806 23.2791 0.656809 51.8594L0.656814 118.124C0.656814 119.709 1.9533 121.005 3.5379 121.005Z" fill="url(#paint1_linear_399_669)"/>
<defs>
<linearGradient id="paint0_linear_399_669" x1="161.997" y1="60.5027" x2="89.9703" y2="60.5027" gradientUnits="userSpaceOnUse">
<stop stop-color="#088347"/>
<stop offset="1" stop-color="#C6E824"/>
</linearGradient>
<linearGradient id="paint1_linear_399_669" x1="72.6838" y1="60.5027" x2="0.656809" y2="60.5027" gradientUnits="userSpaceOnUse">
<stop stop-color="#088347"/>
<stop offset="1" stop-color="#C6E824"/>
</linearGradient>
</defs>
</svg>
