<svg width="109" height="108" viewBox="0 0 109 108" fill="none" xmlns="http://www.w3.org/2000/svg">
<rect x="0.655762" y="0.155762" width="107.689" height="107.689" rx="24" fill="#FFF4E7"/>
<path d="M87.6586 34.7947L61.2962 20.3188C60.9001 20.1014 60.4198 20.1014 60.0237 20.3188L50.0872 25.7748C49.8776 25.8301 49.6818 25.9355 49.5197 26.0868L33.6618 34.7947C33.2389 35.0266 32.976 35.4707 32.976 35.9536V53.4614C30.301 54.298 27.8495 55.7734 25.8112 57.8123C20.4982 63.1247 19.1436 71.2274 22.4405 77.9745C22.7606 78.6303 23.5523 78.9025 24.2082 78.5818C24.8646 78.2611 25.1362 77.4694 24.816 76.8136C22.0149 71.0807 23.166 64.1963 27.6806 59.6817C30.5039 56.8584 34.2573 55.3035 38.2498 55.3035C42.2422 55.3035 45.9956 56.8584 48.8189 59.6817C51.6417 62.5045 53.1966 66.2579 53.1966 70.2503C53.1966 74.2428 51.6417 77.9962 48.8184 80.8195C44.3038 85.334 37.4193 86.4852 31.6865 83.6841C31.0307 83.3634 30.239 83.6355 29.9188 84.2914C29.5981 84.9478 29.8697 85.7394 30.5261 86.0596C32.9838 87.2608 35.6206 87.8444 38.2384 87.8444C42.8051 87.8439 47.3109 86.0663 50.6883 82.6889C52.2371 81.1402 53.461 79.3533 54.3271 77.4111L60.0237 80.539C60.222 80.648 60.441 80.7022 60.66 80.7022C60.8789 80.7022 61.0984 80.648 61.2962 80.539L87.6586 66.0637C88.0816 65.8313 88.3444 65.3872 88.3444 64.9048V55.7171C88.3444 54.9869 87.7526 54.3951 87.0224 54.3951C86.2922 54.3951 85.7003 54.9869 85.7003 55.7171V64.1224L61.9861 77.1441V51.2093L69.8126 46.9116V53.7242C69.8126 54.1921 70.0594 54.6249 70.4617 54.8624C70.6693 54.9848 70.9017 55.0463 71.1346 55.0463C71.3536 55.0463 71.573 54.9921 71.7719 54.8826L77.421 51.7732C77.8435 51.5408 78.1053 51.0972 78.1053 50.6154V42.3577L85.7003 38.1876V45.1413C85.7003 45.8715 86.2922 46.4633 87.0224 46.4633C87.7526 46.4633 88.3444 45.8715 88.3444 45.1413V35.9536C88.3444 35.4712 88.0816 35.0266 87.6586 34.7947ZM60.66 22.9856L84.2755 35.9536L76.8261 40.0442L53.2106 27.0762L60.66 22.9856ZM60.66 48.921L37.0444 35.9536L44.767 31.7127L68.3831 44.6801L60.66 48.921ZM71.1294 43.1721L47.5139 30.2047L50.4637 28.5847L74.0798 41.5521L71.1294 43.1721ZM50.6883 57.8123C47.3657 54.4896 42.9482 52.6599 38.2498 52.6599C37.361 52.6599 36.4831 52.7255 35.6201 52.8541V38.1876L59.3426 51.2139V77.1487L55.2251 74.8878C55.6305 73.3954 55.8402 71.8388 55.8402 70.2503C55.8402 65.5519 54.0105 61.1344 50.6883 57.8123ZM75.4617 49.834L72.4566 51.4881V45.4599L75.4617 43.8099V49.834Z" fill="#70908B"/>
<path d="M87.0225 49.1006C86.6749 49.1006 86.3336 49.2421 86.0878 49.4879C85.8419 49.7337 85.7004 50.0746 85.7004 50.4226C85.7004 50.7702 85.8419 51.111 86.0878 51.3568C86.3336 51.6032 86.6749 51.7442 87.0225 51.7442C87.37 51.7442 87.7114 51.6032 87.9572 51.3568C88.203 51.111 88.3445 50.7702 88.3445 50.4226C88.3445 50.0746 88.203 49.7337 87.9572 49.4879C87.7114 49.2421 87.37 49.1006 87.0225 49.1006Z" fill="#70908B"/>
<path d="M33.8044 71.5725C34.1426 71.5725 34.4814 71.4434 34.7391 71.1857C35.2555 70.6693 35.2555 69.8322 34.7391 69.3158L33.8235 68.3996H41.637C43.5323 68.3996 45.0743 69.9417 45.0743 71.8369C45.0743 73.7322 43.5323 75.2743 41.637 75.2743H37.0072C36.277 75.2743 35.6852 75.8661 35.6852 76.5963C35.6852 77.326 36.277 77.9178 37.0072 77.9178H41.637C44.9901 77.9178 47.7184 75.1901 47.7184 71.8369C47.7184 68.4838 44.9901 65.756 41.637 65.756H33.8235L34.7391 64.8399C35.2555 64.3235 35.2555 63.4864 34.7391 62.9699C34.2232 62.454 33.3861 62.454 32.8697 62.9699L29.6967 66.1428C29.1808 66.6593 29.1808 67.4964 29.6967 68.0128L32.8697 71.1852C33.1279 71.4434 33.4661 71.5725 33.8044 71.5725Z" fill="#70908B"/>
<path d="M26.7469 83.078C26.371 83.078 25.9976 82.9179 25.7368 82.6076L25.7342 82.6045C25.2643 82.0457 25.3366 81.2122 25.8954 80.7422C26.4541 80.2718 27.2882 80.3441 27.7581 80.9028C28.2275 81.4621 28.1568 82.2972 27.598 82.7671C27.3496 82.9758 27.0475 83.078 26.7469 83.078Z" fill="#70908B"/>
</svg>
